# xmcd CD database file
#
# Track frame offsets:
#	180
#	14248
#	29063
#	49291
#	64522
#	88046
#	100467
#	114928
#	141190
#	151833
#	165924
#	179838
#	191813
#	203605
#	215872
#	229846
#	247792
#	261321
#	277213
#	292180
#	307552
#
# Disc length: 4288 seconds
#
# Revision: 0
# Processed by: cddbd v1.5.2PL0 Copyright (c) Steve Scherf et al.
# Submitted via: CDex 1.51
#
DISCID=3e10be15
DTITLE=Various Artist - Jazz Anthology 1943-1944, Les Année Du Jazz - Memorable Jazz Hi-Lites [CD 2)
DYEAR=1995
DGENRE=Jazz
TTITLE0=Flying Home No. 2 - Lionel Hampton and His Orchestra
TTITLE1=Hamp's Boogie Woogie - Lionel Hampton and His Orchestra
TTITLE2=Apple Honey - Woody Herman and His Orchestra
TTITLE3=Lover Man - Billie Holiday
TTITLE4=Begin The Beguine - Eddie Heywood Orchestra
TTITLE5=Is You Is Or Is You Ain't My Baby? - Louis Jordan and His Tympani Five
TTITLE6=Eager Beaver - Stan Kenton's Orchestra
TTITLE7=Back Door Stuff, Pts. 1 and 2 - Jimmie Lunceford and His Orchestra
TTITLE8=Enlisted Men's Mess - Glenn Miller and The Army Air Force Band
TTITLE9=Red Cross - Tiny Grimes Quintet Feat. Charlie Parker
TTITLE10=Lady Day - Artie Shaw and His Orchestra
TTITLE11=Cocktails For Two - Art Tatum
TTITLE12=Moonglow - Art Tatum Trio
TTITLE13=Carney-Val In Rhythm - Billy Taylor Big Eight
TTITLE14=Night Wind - Billy Taylor Big Eight
TTITLE15=Ain't Misbehavin' - Fats Waller and His Rhythm
TTITLE16=That Ain't Right - Fats Waller and His Rhythm
TTITLE17=Sleep - Ben Webster With Big Sid Catlett Quartet
TTITLE18=Blue Garden Blues - Cootie Williams and Orchestra
TTITLE19=Blue Lester - Lester Young Quintet and Quartet
TTITLE20=Sometimes I'm Happy - Lester Young Quintet and Quartet
EXTD=YEAR: 1995
EXTT0=
EXTT1=
EXTT2=
EXTT3=
EXTT4=
EXTT5=
EXTT6=
EXTT7=
EXTT8=
EXTT9=
EXTT10=
EXTT11=
EXTT12=
EXTT13=
EXTT14=
EXTT15=
EXTT16=
EXTT17=
EXTT18=
EXTT19=
EXTT20=
PLAYORDER=
